<?xml version="1.0" encoding="iso-8859-1"?>
<!-- Generator: Adobe Illustrator 19.0.0, SVG Export Plug-In . SVG Version: 6.00 Build 0)  -->
<svg version="1.1" id="Capa_1" xmlns="http://www.w3.org/2000/svg" xmlns:xlink="http://www.w3.org/1999/xlink" x="0px" y="0px"
	 viewBox="0 0 511.84 511.84" style="enable-background:new 0 0 511.84 511.84;" xml:space="preserve">
<g>
	<g>
		<path d="M60.224,143.955h-0.086c-2.202,0-3.952,1.789-3.952,3.999c0,2.21,1.828,3.999,4.038,3.999
			c2.202,0,3.999-1.789,3.999-3.999C64.223,145.744,62.426,143.955,60.224,143.955z"/>
	</g>
</g>
<g>
	<g>
		<path d="M348.133,143.955h-0.086c-2.202,0-3.951,1.789-3.951,3.999c0,2.21,1.827,3.999,4.037,3.999
			c2.203,0,3.999-1.789,3.999-3.999C352.132,145.744,350.336,143.955,348.133,143.955z"/>
	</g>
</g>
<g>
	<g>
		<path d="M156.193,271.915h-0.086c-2.202,0-3.952,1.789-3.952,3.999c0,2.21,1.828,3.999,4.038,3.999
			c2.203,0,3.999-1.789,3.999-3.999C160.192,273.704,158.395,271.915,156.193,271.915z"/>
	</g>
</g>
<g>
	<g>
		<path d="M92.214,159.95h-0.086c-2.202,0-3.952,1.788-3.952,3.999c0,2.21,1.827,3.998,4.038,3.998c2.202,0,3.998-1.788,3.998-3.998
			C96.212,161.738,94.416,159.95,92.214,159.95z"/>
	</g>
</g>
<g>
	<g>
		<path d="M448.102,87.973h-0.086c-2.202,0-3.951,1.789-3.951,3.999s1.827,3.999,4.037,3.999c2.203,0,3.999-1.789,3.999-3.999
			S450.305,87.973,448.102,87.973z"/>
	</g>
</g>
<g>
	<g>
		<path d="M448.102,103.968h-0.086c-2.202,0-3.951,1.788-3.951,3.999c0,2.21,1.827,3.998,4.037,3.998
			c2.203,0,3.999-1.788,3.999-3.998C452.101,105.756,450.305,103.968,448.102,103.968z"/>
	</g>
</g>
<g>
	<g>
		<path d="M448.102,119.963h-0.086c-2.202,0-3.951,1.788-3.951,3.999c0,2.21,1.827,3.998,4.037,3.998
			c2.203,0,3.999-1.788,3.999-3.998C452.101,121.751,450.305,119.963,448.102,119.963z"/>
	</g>
</g>
<g>
	<g>
		<path d="M448.102,135.958h-0.086c-2.202,0-3.951,1.788-3.951,3.998c0,2.211,1.827,3.999,4.037,3.999
			c2.203,0,3.999-1.788,3.999-3.999C452.101,137.746,450.305,135.958,448.102,135.958z"/>
	</g>
</g>
<g>
	<g>
		<path d="M36.232,39.988h-0.086c-2.202,0-3.952,1.788-3.952,3.998c0,2.211,1.828,3.999,4.038,3.999
			c2.202,0,3.999-1.788,3.999-3.999C40.231,41.776,38.434,39.988,36.232,39.988z"/>
	</g>
</g>
<g>
	<g>
		<path d="M507.841,87.973h-39.987c-2.211,0-3.999,1.789-3.999,3.999s1.788,3.999,3.999,3.999h39.987
			c2.21,0,3.999-1.789,3.999-3.999S510.051,87.973,507.841,87.973z"/>
	</g>
</g>
<g>
	<g>
		<path d="M507.841,135.958h-39.987c-2.211,0-3.999,1.788-3.999,3.998c0,2.211,1.788,3.999,3.999,3.999h39.987
			c2.21,0,3.999-1.788,3.999-3.999C511.84,137.746,510.051,135.958,507.841,135.958z"/>
	</g>
</g>
<g>
	<g>
		<path d="M459.856,79.976c-2.21,0-3.998,1.788-3.998,3.998v63.98c0,2.21,1.788,3.999,3.998,3.999c2.21,0,3.999-1.789,3.999-3.999
			v-63.98C463.855,81.764,462.067,79.976,459.856,79.976z"/>
	</g>
</g>
<g>
	<g>
		<path d="M347.891,55.983H3.999C1.789,55.983,0,57.772,0,59.982c0,2.21,1.789,3.999,3.999,3.999h343.892
			c2.211,0,3.999-1.789,3.999-3.999C351.89,57.772,350.102,55.983,347.891,55.983z"/>
	</g>
</g>
<g>
	<g>
		<path d="M365.707,64.589l-15.995-8.17c-1.961-0.999-4.366-0.227-5.381,1.742c-1.008,1.968-0.227,4.377,1.741,5.381l15.995,8.169
			c0.586,0.297,1.203,0.438,1.819,0.438c1.453,0,2.85-0.796,3.562-2.179C368.456,68.002,367.675,65.592,365.707,64.589z"/>
	</g>
</g>
<g>
	<g>
		<path d="M435.863,64.152h-71.978c-2.21,0-3.998,1.788-3.998,3.999c0,2.21,1.788,3.998,3.998,3.998h71.978
			c2.211,0,3.999-1.788,3.999-3.998C439.862,65.94,438.074,64.152,435.863,64.152z"/>
	</g>
</g>
<g>
	<g>
		<path d="M379.881,167.947h-7.997c-2.21,0-3.999,1.789-3.999,3.999c0,2.21,1.789,3.999,3.999,3.999h7.997
			c2.211,0,3.999-1.789,3.999-3.999C383.88,169.736,382.092,167.947,379.881,167.947z"/>
	</g>
</g>
<g>
	<g>
		<path d="M375.461,170.158c-0.992-1.98-3.382-2.772-5.366-1.789l-15.995,7.998c-1.976,0.987-2.771,3.389-1.788,5.365
			c0.703,1.401,2.116,2.21,3.577,2.21c0.601,0,1.211-0.136,1.788-0.422l15.995-7.997
			C375.649,174.535,376.444,172.134,375.461,170.158z"/>
	</g>
</g>
<g>
	<g>
		<path d="M355.889,175.945H91.972c-2.21,0-3.999,1.788-3.999,3.998c0,2.211,1.789,3.999,3.999,3.999h263.917
			c2.21,0,3.999-1.788,3.999-3.999C359.888,177.733,358.099,175.945,355.889,175.945z"/>
	</g>
</g>
<g>
	<g>
		<path d="M93.76,176.367l-47.984-23.993c-1.976-0.968-4.374-0.188-5.366,1.789c-0.983,1.975-0.187,4.377,1.789,5.365l47.984,23.992
			c0.578,0.285,1.187,0.422,1.789,0.422c1.46,0,2.874-0.808,3.577-2.21C96.532,179.757,95.737,177.354,93.76,176.367z"/>
	</g>
</g>
<g>
	<g>
		<path d="M43.986,143.955c-2.21,0-3.998,1.789-3.998,3.999v7.997c0,2.211,1.788,3.999,3.998,3.999c2.211,0,3.999-1.788,3.999-3.999
			v-7.997C47.985,145.744,46.197,143.955,43.986,143.955z"/>
	</g>
</g>
<g>
	<g>
		<path d="M43.986,143.955H3.999c-2.21,0-3.999,1.789-3.999,3.999c0,2.21,1.789,3.999,3.999,3.999h39.987
			c2.211,0,3.999-1.789,3.999-3.999C47.985,145.744,46.197,143.955,43.986,143.955z"/>
	</g>
</g>
<g>
	<g>
		<path d="M507.841,87.973c-2.21,0-3.999,1.789-3.999,3.999v47.984c0,2.211,1.789,3.999,3.999,3.999s3.999-1.788,3.999-3.999V91.972
			C511.84,89.762,510.051,87.973,507.841,87.973z"/>
	</g>
</g>
<g>
	<g>
		<path d="M451.859,71.978c-2.21,0-3.999,1.789-3.999,3.999c0,2.21,1.789,3.999,3.999,3.999c2.202,0,3.999,1.792,3.999,3.998
			c0,2.211,1.788,3.999,3.998,3.999c2.21,0,3.999-1.788,3.999-3.999C463.855,77.36,458.474,71.978,451.859,71.978z"/>
	</g>
</g>
<g>
	<g>
		<path d="M459.871,143.955c-2.21,0-3.998,1.789-3.998,3.999c0,2.206-1.797,3.999-3.999,3.999c-2.21,0-3.999,1.788-3.999,3.998
			c0,2.211,1.789,3.999,3.999,3.999c6.615,0,11.996-5.381,11.996-11.996C463.87,145.744,462.082,143.955,459.871,143.955z"/>
	</g>
</g>
<g>
	<g>
		<path d="M451.858,71.978h-7.997c-2.211,0-3.999,1.789-3.999,3.999c0,2.21,1.788,3.999,3.999,3.999h7.997
			c2.21,0,3.999-1.789,3.999-3.999C455.857,73.767,454.068,71.978,451.858,71.978z"/>
	</g>
</g>
<g>
	<g>
		<path d="M451.874,151.953h-8.013c-2.211,0-3.999,1.788-3.999,3.998c0,2.211,1.788,3.999,3.999,3.999h8.013
			c2.21,0,3.999-1.788,3.999-3.999C455.873,153.741,454.084,151.953,451.874,151.953z"/>
	</g>
</g>
<g>
	<g>
		<path d="M435.863,64.152c-2.21,0-3.998,1.788-3.998,3.999v95.798c0,2.21,1.788,3.998,3.998,3.998c2.211,0,3.999-1.788,3.999-3.998
			V68.151C439.862,65.94,438.074,64.152,435.863,64.152z"/>
	</g>
</g>
<g>
	<g>
		<path d="M3.999,55.983C1.789,55.983,0,57.772,0,59.982v87.972c0,2.21,1.789,3.999,3.999,3.999c2.21,0,3.999-1.789,3.999-3.998
			V59.982C7.998,57.772,6.209,55.983,3.999,55.983z"/>
	</g>
</g>
<g>
	<g>
		<path d="M3.999,39.988C1.789,39.988,0,41.776,0,43.986v7.998c0,2.21,1.789,3.998,3.999,3.998c2.21,0,3.999-1.788,3.999-3.998
			v-7.998C7.998,41.776,6.209,39.988,3.999,39.988z"/>
	</g>
</g>
<g>
	<g>
		<path d="M22.821,25.164c-1.561-1.562-4.092-1.562-5.654,0L1.172,41.159c-1.562,1.562-1.562,4.092,0,5.654
			c0.781,0.781,1.805,1.172,2.827,1.172c1.024,0,2.047-0.39,2.827-1.171l15.995-15.995C24.383,29.257,24.383,26.726,22.821,25.164z"
			/>
	</g>
</g>
<g>
	<g>
		<path d="M59.981,23.993H19.994c-2.21,0-3.999,1.788-3.999,3.998c0,2.211,1.789,3.999,3.999,3.999h39.988
			c2.209,0,3.999-1.788,3.998-3.999C63.98,25.781,62.191,23.993,59.981,23.993z"/>
	</g>
</g>
<g>
	<g>
		<path d="M59.982,23.993c-2.21,0-3.999,1.788-3.999,3.998v23.993c0,2.21,1.789,3.998,3.999,3.998c2.209,0,3.999-1.788,3.999-3.998
			V27.991C63.981,25.781,62.192,23.993,59.982,23.993z"/>
	</g>
</g>
<g>
	<g>
		<path d="M435.863,23.994c-2.21,0-3.998,1.788-3.998,3.998v31.99c0,2.21,1.788,3.999,3.998,3.999c2.211,0,3.999-1.79,3.999-3.999
			v-31.99C439.862,25.782,438.074,23.994,435.863,23.994z"/>
	</g>
</g>
<g>
	<g>
		<path d="M435.863,23.993h-23.992c-2.211,0-3.999,1.788-3.999,3.998c0,2.211,1.788,3.999,3.999,3.999h23.992
			c2.211,0,3.999-1.788,3.999-3.999C439.862,25.781,438.074,23.993,435.863,23.993z"/>
	</g>
</g>
<g>
	<g>
		<path d="M414.698,25.164c-1.561-1.562-4.092-1.562-5.654,0l-15.995,15.995c-1.562,1.562-1.562,4.092,0,5.654
			c0.781,0.781,1.804,1.172,2.827,1.172s2.046-0.39,2.827-1.172l15.995-15.994C416.26,29.257,416.26,26.726,414.698,25.164z"/>
	</g>
</g>
<g>
	<g>
		<path d="M395.876,39.988c-2.21,0-3.999,1.788-3.999,3.998v15.996c0,2.21,1.789,3.999,3.999,3.999c2.21,0,3.999-1.79,3.999-4
			V43.986C399.875,41.776,398.086,39.988,395.876,39.988z"/>
	</g>
</g>
<g>
	<g>
		<path d="M331.897,39.988h-23.992c-2.211,0-3.999,1.788-3.999,3.998c0,2.211,1.788,3.999,3.999,3.999h23.992
			c2.21,0,3.998-1.788,3.998-3.999C335.895,41.776,334.107,39.988,331.897,39.988z"/>
	</g>
</g>
<g>
	<g>
		<path d="M331.897,15.995c-2.211,0-3.999,1.789-3.999,3.999v31.99c0,2.21,1.788,3.998,3.999,3.998c2.21,0,3.998-1.788,3.998-3.998
			v-31.99C335.895,17.784,334.107,15.995,331.897,15.995z"/>
	</g>
</g>
<g>
	<g>
		<path d="M307.904,39.988c-2.211,0-3.999,1.788-3.999,3.998v7.998c0,2.21,1.788,3.998,3.999,3.998c2.21,0,3.998-1.788,3.998-3.998
			v-7.998C311.902,41.776,310.114,39.988,307.904,39.988z"/>
	</g>
</g>
<g>
	<g>
		<path d="M390.706,161.122c-1.562-1.562-4.093-1.562-5.655,0l-7.997,7.997c-1.562,1.561-1.562,4.092,0,5.654
			c0.781,0.781,1.804,1.172,2.827,1.172s2.047-0.39,2.827-1.172l7.998-7.997C392.268,165.214,392.268,162.684,390.706,161.122z"/>
	</g>
</g>
<g>
	<g>
		<path d="M403.873,167.947h-7.997c-2.21,0-3.999,1.789-3.999,3.999c0,2.21,1.789,3.999,3.999,3.999h7.997
			c2.211,0,3.999-1.789,3.999-3.999C407.872,169.736,406.084,167.947,403.873,167.947z"/>
	</g>
</g>
<g>
	<g>
		<path d="M414.698,161.122c-1.561-1.562-4.092-1.562-5.654,0l-7.998,7.997c-1.562,1.561-1.562,4.092,0,5.654
			c0.781,0.781,1.805,1.172,2.827,1.172c1.024,0,2.047-0.39,2.828-1.172l7.997-7.997C416.26,165.214,416.26,162.684,414.698,161.122
			z"/>
	</g>
</g>
<g>
	<g>
		<path d="M427.866,167.947h-7.998c-2.21,0-3.999,1.789-3.999,3.999c0,2.21,1.789,3.999,3.999,3.999h7.998
			c2.21,0,3.999-1.789,3.999-3.999C431.865,169.736,430.076,167.947,427.866,167.947z"/>
	</g>
</g>
<g>
	<g>
		<path d="M438.69,161.122c-1.561-1.562-4.092-1.562-5.654,0l-7.997,7.997c-1.562,1.561-1.562,4.092,0,5.654
			c0.781,0.781,1.804,1.172,2.827,1.172c1.023,0,2.046-0.39,2.827-1.172l7.997-7.997
			C440.252,165.214,440.252,162.684,438.69,161.122z"/>
	</g>
</g>
<g>
	<g>
		<path d="M126.805,57.155c-1.562-1.562-4.093-1.562-5.655,0l-7.997,7.997c-1.562,1.562-1.562,4.093,0,5.655
			c0.781,0.78,1.804,1.171,2.827,1.171s2.045-0.391,2.827-1.171l7.998-7.998C128.367,61.248,128.367,58.717,126.805,57.155z"/>
	</g>
</g>
<g>
	<g>
		<path d="M150.797,57.155c-1.562-1.562-4.092-1.562-5.654,0l-7.998,7.997c-1.562,1.562-1.562,4.093,0,5.655
			c0.781,0.78,1.805,1.171,2.827,1.171c1.023,0,2.047-0.391,2.827-1.171l7.998-7.998C152.359,61.248,152.359,58.717,150.797,57.155z
			"/>
	</g>
</g>
<g>
	<g>
		<path d="M174.805,57.155c-1.561-1.562-4.092-1.562-5.654,0l-7.997,7.997c-1.562,1.562-1.562,4.093,0,5.655
			c0.78,0.78,1.804,1.171,2.827,1.171c1.022,0,2.045-0.391,2.827-1.171l7.997-7.998C176.367,61.248,176.367,58.717,174.805,57.155z"
			/>
	</g>
</g>
<g>
	<g>
		<path d="M198.797,57.155c-1.561-1.562-4.092-1.562-5.654,0l-7.997,7.997c-1.562,1.562-1.562,4.093,0,5.655
			c0.781,0.78,1.804,1.171,2.827,1.171c1.023,0,2.046-0.391,2.827-1.171l7.997-7.998C200.359,61.248,200.359,58.717,198.797,57.155z
			"/>
	</g>
</g>
<g>
	<g>
		<path d="M222.759,57.155c-1.562-1.562-4.092-1.562-5.654,0l-7.998,7.997c-1.562,1.562-1.562,4.093,0,5.655
			c0.781,0.78,1.805,1.171,2.827,1.171c1.023,0,2.047-0.391,2.827-1.171l7.998-7.998C224.321,61.248,224.321,58.717,222.759,57.155z
			"/>
	</g>
</g>
<g>
	<g>
		<path d="M246.751,57.155c-1.562-1.562-4.092-1.562-5.654,0l-7.998,7.997c-1.562,1.562-1.562,4.093,0,5.655
			c0.781,0.78,1.805,1.171,2.827,1.171c1.023,0,2.047-0.391,2.828-1.171l7.997-7.998C248.313,61.248,248.313,58.717,246.751,57.155z
			"/>
	</g>
</g>
<g>
	<g>
		<path d="M270.743,57.155c-1.561-1.562-4.092-1.562-5.654,0l-7.997,7.997c-1.562,1.562-1.562,4.093,0,5.655
			c0.781,0.78,1.804,1.171,2.827,1.171c1.022,0,2.046-0.391,2.827-1.171l7.997-7.998C272.305,61.248,272.305,58.717,270.743,57.155z
			"/>
	</g>
</g>
<g>
	<g>
		<path d="M123.962,80.148c-6.615,0-11.997,5.381-11.997,11.996c0,2.21,1.789,3.999,3.999,3.999s3.999-1.789,3.999-3.999
			c0-2.206,1.796-3.999,3.999-3.999c2.21,0,3.998-1.788,3.998-3.999C127.96,81.936,126.172,80.148,123.962,80.148z"/>
	</g>
</g>
<g>
	<g>
		<path d="M123.978,119.963c-2.203,0-3.999-1.793-3.999-3.999c0-2.21-1.789-3.999-3.999-3.999s-3.999,1.789-3.999,3.999
			c0,6.615,5.382,11.996,11.997,11.996c2.21,0,3.998-1.788,3.998-3.998C127.976,121.751,126.188,119.963,123.978,119.963z"/>
	</g>
</g>
<g>
	<g>
		<path d="M115.964,88.145c-2.21,0-3.999,1.789-3.999,3.999v23.82c0,2.21,1.789,3.999,3.999,3.999s3.999-1.789,3.999-3.999v-23.82
			C119.963,89.934,118.174,88.145,115.964,88.145z"/>
	</g>
</g>
<g>
	<g>
		<path d="M203.952,111.965c-2.211,0-3.999,1.789-3.999,3.999c0,2.206-1.796,3.999-3.999,3.999c-2.21,0-3.998,1.788-3.998,3.999
			c0,2.21,1.788,3.998,3.998,3.998c6.615,0,11.996-5.381,11.996-11.996C207.95,113.754,206.162,111.965,203.952,111.965z"/>
	</g>
</g>
<g>
	<g>
		<path d="M195.939,80.148c-2.21,0-3.998,1.788-3.998,3.998c0,2.211,1.788,3.999,3.998,3.999c2.203,0,3.999,1.793,3.999,3.999
			c0,2.21,1.788,3.999,3.999,3.999c2.21,0,3.998-1.789,3.998-3.999C207.935,85.529,202.554,80.148,195.939,80.148z"/>
	</g>
</g>
<g>
	<g>
		<path d="M203.952,88.145c-2.211,0-3.999,1.789-3.999,3.999v23.82c0,2.21,1.788,3.999,3.999,3.999c2.21,0,3.998-1.789,3.998-3.999
			v-23.82C207.95,89.934,206.162,88.145,203.952,88.145z"/>
	</g>
</g>
<g>
	<g>
		<path d="M195.954,119.963h-71.977c-2.211,0-3.999,1.788-3.999,3.999c0,2.21,1.788,3.998,3.999,3.998h71.977
			c2.211,0,3.999-1.788,3.999-3.998C199.953,121.751,198.165,119.963,195.954,119.963z"/>
	</g>
</g>
<g>
	<g>
		<path d="M195.939,80.148h-71.977c-2.211,0-3.999,1.788-3.999,3.998c0,2.211,1.788,3.999,3.999,3.999h71.977
			c2.21,0,3.999-1.788,3.999-3.999C199.938,81.936,198.15,80.148,195.939,80.148z"/>
	</g>
</g>
<g>
	<g>
		<path d="M307.904,87.973h-87.973c-2.211,0-3.999,1.789-3.999,3.999s1.788,3.999,3.999,3.999h87.973
			c2.21,0,3.998-1.789,3.998-3.999S310.114,87.973,307.904,87.973z"/>
	</g>
</g>
<g>
	<g>
		<path d="M307.904,111.965h-87.973c-2.211,0-3.999,1.789-3.999,3.999c0,2.21,1.788,3.999,3.999,3.999h87.973
			c2.21,0,3.998-1.789,3.998-3.999C311.902,113.754,310.114,111.965,307.904,111.965z"/>
	</g>
</g>
<g>
	<g>
		<path d="M123.978,159.95c-2.211,0-4.015-1.796-4.015-4.007c0-2.21,1.804-4.006,4.015-4.006c2.21,0,3.998-1.789,3.998-3.999
			c0-2.21-1.788-3.999-3.998-3.999c-6.623,0-12.013,5.385-12.013,12.004c0,6.619,5.39,12.004,12.013,12.004
			c2.21,0,3.998-1.788,3.998-3.998C127.976,161.738,126.188,159.95,123.978,159.95z"/>
	</g>
</g>
<g>
	<g>
		<path d="M299.906,143.955c-2.21,0-3.999,1.789-3.999,3.999c0,2.21,1.789,3.999,3.999,3.999c2.202,0,3.999,1.792,3.999,3.998
			c0,2.207-1.797,3.999-3.999,3.999c-2.21,0-3.999,1.788-3.999,3.999c0,2.21,1.789,3.998,3.999,3.998
			c6.616,0,11.996-5.381,11.996-11.996S306.521,143.955,299.906,143.955z"/>
	</g>
</g>
<g>
	<g>
		<path d="M299.907,143.94H123.978c-2.211,0-3.999,1.789-3.999,3.999c0,2.21,1.788,3.999,3.999,3.999h175.928
			c2.21,0,4-1.789,4-3.999C303.906,145.729,302.117,143.94,299.907,143.94z"/>
	</g>
</g>
<g>
	<g>
		<path d="M299.907,159.95H123.978c-2.211,0-3.999,1.788-3.999,3.999c0,2.21,1.788,3.998,3.999,3.998h175.928
			c2.21,0,3.999-1.788,4-3.998C303.906,161.738,302.117,159.95,299.907,159.95z"/>
	</g>
</g>
<g>
	<g>
		<path d="M59.981,87.973H19.994c-2.21,0-3.999,1.789-3.999,3.999s1.789,3.999,3.999,3.999h39.988c2.209,0,3.998-1.789,3.998-3.999
			S62.191,87.973,59.981,87.973z"/>
	</g>
</g>
<g>
	<g>
		<path d="M59.982,87.973c-2.21,0-3.999,1.789-3.999,3.999v23.992c0,2.21,1.789,3.999,3.999,3.999c2.209,0,3.999-1.789,3.999-3.999
			V91.972C63.981,89.762,62.192,87.973,59.982,87.973z"/>
	</g>
</g>
<g>
	<g>
		<path d="M59.981,111.965H19.994c-2.21,0-3.999,1.789-3.999,3.999c0,2.21,1.789,3.999,3.999,3.999h39.988
			c2.209,0,3.998-1.789,3.998-3.999C63.98,113.754,62.191,111.965,59.981,111.965z"/>
	</g>
</g>
<g>
	<g>
		<path d="M363.886,64.152c-2.21,0-3.998,1.788-3.998,3.999v15.823c0,2.211,1.788,3.999,3.998,3.999c2.211,0,3.999-1.788,3.999-4
			V68.151C367.885,65.94,366.097,64.152,363.886,64.152z"/>
	</g>
</g>
<g>
	<g>
		<path d="M403.873,79.976h-39.987c-2.21,0-3.998,1.788-3.998,3.998c0,2.211,1.788,3.999,3.998,3.999h39.987
			c2.211,0,3.999-1.788,3.999-3.999C407.872,81.764,406.084,79.976,403.873,79.976z"/>
	</g>
</g>
<g>
	<g>
		<path d="M343.892,218.987v-21.392l6.826-6.826c1.562-1.561,1.562-4.092,0-5.654c-1.562-1.562-4.092-1.562-5.654,0l-7.998,7.997
			c-0.75,0.75-1.172,1.765-1.172,2.827v23.993c0,0.62,0.149,1.233,0.422,1.788l5.936,11.871L276.219,255.6l-30.507-15.253
			c-1.968-0.977-4.373-0.184-5.365,1.788c-0.984,1.976-0.188,4.378,1.788,5.366l31.99,15.995c0.562,0.28,1.172,0.421,1.789,0.421
			c0.43,0,0.852-0.066,1.263-0.206l71.978-23.993c1.102-0.364,1.985-1.191,2.429-2.261c0.445-1.07,0.399-2.28-0.117-3.319
			L343.892,218.987z"/>
	</g>
</g>
<g>
	<g>
		<path d="M151.953,203.936c0-1.336-0.672-2.585-1.781-3.327l-23.992-15.995c-1.82-1.215-4.312-0.731-5.545,1.109
			c-1.227,1.839-0.727,4.318,1.108,5.545l22.181,14.788c-0.305,12.047-3.164,26.699-6.436,43.518
			c-7.395,37.946-16.596,85.165-1.327,131.557c0.554,1.687,2.116,2.749,3.795,2.749c0.414,0,0.836-0.063,1.25-0.204
			c2.101-0.688,3.241-2.944,2.546-5.045c-14.612-44.408-5.631-90.495,1.586-127.526
			C148.884,232.879,151.953,217.139,151.953,203.936z"/>
	</g>
</g>
<g>
	<g>
		<path d="M235.926,183.942c-2.21,0-3.998,1.789-3.998,3.999v191.94c0,2.21,1.788,3.999,3.998,3.999c2.211,0,3.999-1.789,3.999-4
			V187.941C239.925,185.731,238.137,183.942,235.926,183.942z"/>
	</g>
</g>
<g>
	<g>
		<path d="M243.924,375.882H139.956c-2.21,0-3.998,1.789-3.998,3.999c0,2.21,1.788,3.999,3.998,3.999h103.968
			c2.21,0,3.999-1.789,3.999-3.999C247.923,377.671,246.134,375.882,243.924,375.882z"/>
	</g>
</g>
<g>
	<g>
		<path d="M131.959,199.938c-2.21,0-3.999,1.788-3.999,3.999v39.987c0,2.21,1.789,3.999,3.999,3.999s3.999-1.789,3.999-3.999
			v-39.987C135.958,201.726,134.169,199.938,131.959,199.938z"/>
	</g>
</g>
<g>
	<g>
		<path d="M219.932,359.888H151.11c-2.21,0-3.999,1.788-3.999,3.998c0,2.211,1.789,3.999,3.999,3.999h68.822
			c2.21,0,3.998-1.788,3.998-3.999C223.93,361.676,222.142,359.888,219.932,359.888z"/>
	</g>
</g>
<g>
	<g>
		<path d="M219.932,343.893h-71.657c-2.211,0-3.999,1.788-3.999,3.999c0,2.21,1.788,3.998,3.999,3.998h71.657
			c2.21,0,3.998-1.788,3.998-3.998C223.93,345.681,222.142,343.893,219.932,343.893z"/>
	</g>
</g>
<g>
	<g>
		<path d="M219.932,327.898h-71.978c-2.21,0-3.999,1.788-3.999,3.999c0,2.21,1.789,3.998,3.999,3.998h71.978
			c2.21,0,3.998-1.788,3.998-3.998C223.93,329.686,222.142,327.898,219.932,327.898z"/>
	</g>
</g>
<g>
	<g>
		<path d="M219.932,311.902h-71.978c-2.21,0-3.999,1.788-3.999,3.999c0,2.21,1.789,3.998,3.999,3.998h71.978
			c2.21,0,3.998-1.788,3.998-3.998C223.93,313.69,222.142,311.902,219.932,311.902z"/>
	</g>
</g>
<g>
	<g>
		<path d="M219.932,295.907h-63.98c-2.21,0-3.998,1.789-3.998,3.999c0,2.21,1.788,3.999,3.998,3.999h63.98
			c2.21,0,3.998-1.789,3.998-3.999C223.93,297.696,222.142,295.907,219.932,295.907z"/>
	</g>
</g>
<g>
	<g>
		<path d="M219.932,279.913h-47.985c-2.21,0-3.999,1.788-3.999,3.998c0,2.211,1.789,3.999,3.999,3.999h47.985
			c2.21,0,3.998-1.788,3.998-3.999C223.93,281.701,222.142,279.913,219.932,279.913z"/>
	</g>
</g>
<g>
	<g>
		<path d="M219.932,263.917h-31.99c-2.21,0-3.999,1.789-3.999,3.999c0,2.21,1.789,3.999,3.999,3.999h31.99
			c2.21,0,3.998-1.789,3.998-3.999C223.93,265.706,222.142,263.917,219.932,263.917z"/>
	</g>
</g>
<g>
	<g>
		<path d="M219.932,247.923h-15.995c-2.211,0-3.999,1.788-3.999,3.998c0,2.211,1.788,3.999,3.999,3.999h15.995
			c2.21,0,3.998-1.788,3.998-3.999C223.93,249.711,222.142,247.923,219.932,247.923z"/>
	</g>
</g>
<g>
	<g>
		<path d="M299.906,223.93c-27.991,0-27.991-19.954-27.991-35.988c0-2.21-1.788-3.999-3.999-3.999c-2.21,0-3.998,1.789-3.998,3.999
			c0,15.374,0,43.986,35.988,43.986c2.21,0,3.999-1.789,3.999-3.999C303.905,225.719,302.116,223.93,299.906,223.93z"/>
	</g>
</g>
<g>
	<g>
		<path d="M227.929,384.88c-2.21,0-3.999,1.788-3.999,3.998v94.971c0,2.21,1.789,3.998,3.999,3.998c2.21,0,3.999-1.788,3.999-3.998
			v-94.971C231.928,386.668,230.139,384.88,227.929,384.88z"/>
	</g>
</g>
<g>
	<g>
		<path d="M155.951,383.88c-2.21,0-3.998,1.788-3.998,3.998v95.971c0,2.21,1.788,3.998,3.998,3.998c2.211,0,3.999-1.788,3.999-3.998
			v-95.971C159.95,385.668,158.162,383.88,155.951,383.88z"/>
	</g>
</g>
<g>
	<g>
		<path d="M163.949,487.847c-2.203,0-3.999-1.796-3.999-3.998c0-2.211-1.788-3.999-3.999-3.999c-2.21,0-3.998,1.788-3.998,3.999
			c0,6.615,5.381,11.996,11.996,11.996c2.21,0,3.998-1.789,3.998-3.999C167.947,489.636,166.159,487.847,163.949,487.847z"/>
	</g>
</g>
<g>
	<g>
		<path d="M227.929,479.85c-2.21,0-3.999,1.788-3.999,3.999c0,2.202-1.796,3.998-3.998,3.998c-2.211,0-3.999,1.789-3.999,3.999
			c0,2.21,1.788,3.999,3.999,3.999c6.614,0,11.996-5.381,11.996-11.996C231.928,481.638,230.139,479.85,227.929,479.85z"/>
	</g>
</g>
<g>
	<g>
		<path d="M219.932,487.847H163.95c-2.211,0-3.999,1.789-3.999,3.999c0,2.21,1.788,3.999,3.999,3.999h55.982
			c2.21,0,3.998-1.789,3.998-3.999C223.93,489.636,222.142,487.847,219.932,487.847z"/>
	</g>
</g>
<g>
	<g>
		<path d="M179.943,383.88c-2.21,0-3.998,1.788-3.998,3.998v71.979c0,2.21,1.788,3.998,3.998,3.998c2.211,0,3.999-1.789,3.999-3.998
			v-71.979C183.942,385.668,182.154,383.88,179.943,383.88z"/>
	</g>
</g>
<g>
	<g>
		<path d="M196.024,383.88c-2.21,0-3.998,1.788-3.998,3.998v71.979c0,2.21,1.788,3.998,3.998,3.998c2.211,0,4-1.789,3.999-3.998
			v-71.979C200.023,385.668,198.235,383.88,196.024,383.88z"/>
	</g>
</g>
<g>
</g>
<g>
</g>
<g>
</g>
<g>
</g>
<g>
</g>
<g>
</g>
<g>
</g>
<g>
</g>
<g>
</g>
<g>
</g>
<g>
</g>
<g>
</g>
<g>
</g>
<g>
</g>
<g>
</g>
</svg>
